nColumns=19
nRows=105
DataType=double
version=3
OpenSimVersion=4.1
endheader
time	ground_force_calcn_r_vx	ground_force_calcn_r_vy	ground_force_calcn_r_vz	ground_force_calcn_r_px	ground_force_calcn_r_py	ground_force_calcn_r_pz	ground_force_calcn_r_mx	ground_force_calcn_r_my	ground_force_calcn_r_mz	ground_force_calcn_l_vx	ground_force_calcn_l_vy	ground_force_calcn_l_vz	ground_force_calcn_l_px	ground_force_calcn_l_py	ground_force_calcn_l_pz	ground_force_calcn_l_mx	ground_force_calcn_l_my	ground_force_calcn_l_mz
1.81	-324.488	1914.53	-32.5945	0.973051	0	-0.256293	-4.69334	27.6914	-0.471441	0	0	0	0	0	0	0	0	0
1.815	-411.584	2009.65	55.2434	0.963608	0	-0.253683	-2.27019	11.0847	0.304708	0	0	0	0	0	0	0	0	0
1.82	-467.785	2114.56	113.013	0.954747	0	-0.251112	1.10219	-4.98229	-0.26628	0	0	0	0	0	0	0	0	0
1.825	-487.916	2237.6	124.179	0.942768	0	-0.250585	2.43655	-11.1741	-0.620122	0	0	0	0	0	0	0	0	0
1.83	-477.225	2361.03	87.4785	0.924901	0	-0.252019	1.24361	-6.15264	-0.227961	0	0	0	0	0	0	0	0	0
1.835	-437.937	2466.72	21.7563	0.901385	0	-0.25402	-0.715426	4.0297	0.0355417	0	0	0	0	0	0	0	0	0
1.84	-373.2	2548.17	-43.2838	0.873884	0	-0.255312	-1.78432	12.1831	-0.206946	0	0	0	0	0	0	0	0	0
1.845	-294.29	2606.01	-84.2637	0.844676	0	-0.255548	-1.53297	13.5748	-0.438934	0	0	0	0	0	0	0	0	0
1.85	-213.555	2640.63	-95.3611	0.816208	0	-0.255132	-0.67783	8.38146	-0.302679	0	0	0	0	0	0	0	0	0
1.855	-135.217	2653.76	-89.7373	0.789502	0	-0.254911	-0.196244	3.85146	-0.130237	0	0	0	0	0	0	0	0	0
1.86	-57.4463	2648.09	-84.7321	0.764085	0	-0.255341	-0.137275	6.32792	-0.202477	0	0	0	0	0	0	0	0	0
1.865	22.2873	2623.56	-87.9403	0.739752	0	-0.256249	0.127916	15.0577	-0.504725	0	0	0	0	0	0	0	0	0
1.87	100.668	2579.56	-92.0612	0.716585	0	-0.257159	0.986736	25.2847	-0.902377	0	0	0	0	0	0	0	0	0
1.875	171.787	2517.03	-81.7635	0.694725	0	-0.257695	2.0891	30.6096	-0.994328	0	0	0	0	0	0	0	0	0
1.88	231.866	2434.83	-48.2346	0.674417	0	-0.257923	2.34392	24.6135	-0.487599	0	0	0	0	0	0	0	0	0
1.885	278.542	2326.35	1.43681	0.654803	0	-0.258215	0.681167	5.68902	0.00351367	0	0	0	0	0	0	0	0	0
1.89	313.848	2188.69	50.6876	0.635211	0	-0.259041	-3.08445	-21.5102	-0.49815	0	0	0	0	0	0	0	0	0
1.895	344.715	2026.94	83.1891	0.615878	0	-0.260395	-7.65001	-44.9825	-1.84616	0	0	0	0	0	0	0	0	0
1.9	377.024	1842.57	84.745	0.593991	0	-0.26161	-10.048	-49.1061	-2.25853	0	0	0	0	0	0	0	0	0
1.905	409.942	1630.2	49.4027	0.563226	0	-0.261143	-7.01131	-27.8817	-0.844942	0	0	0	0	0	0	0	0	0
1.91	437.806	1388.43	-12.2208	0.51823	0	-0.257059	2.69465	8.54563	-0.0752175	0	0	0	0	0	0	0	0	0
1.915	452.142	1130.93	-70.9157	0.457653	0	-0.247524	16.6626	41.6776	-2.61342	0	0	0	0	0	0	0	0	0
1.92	443.143	881.982	-92.1565	0.385354	0	-0.234859	26.6336	53.0084	-5.53874	0	0	0	0	0	0	0	0	0
1.925	403.303	659.797	-62.627	0.310365	0	-0.231957	21.6439	35.4091	-3.36098	0	0	0	0	0	0	0	0	0
1.93	332.185	470.58	-1.91087	0.254798	0	-0.258945	0.237705	0.336738	-0.00136738	0	0	0	0	0	0	0	0	0
1.935	244.271	308.748	49.4948	0.247277	0	-0.31786	-20.9477	-26.477	-4.24447	0	0	0	0	0	0	0	0	0
1.94	163.404	172.678	60.2334	0.310686	0	-0.385809	-24.4144	-25.8	-8.99954	0	0	0	0	0	0	0	0	0
1.945	104.584	73.2333	33.4421	0.354525	0	-0.406323	-11.9724	-8.38348	-3.82833	0	0	0	0	0	0	0	0	0
1.95	67.2026	13.7338	-1.82584	0.283788	0	-0.19708	0.602903	0.123212	-0.0163804	0	0	0	0	0	0	0	0	0
1.955	0	0	0	0	0	0	0	0	0	0	0	0	0	0	0	0	0	0
1.96	0	0	0	0	0	0	0	0	0	0	0	0	0	0	0	0	0	0
1.965	0	0	0	0	0	0	0	0	0	0	0	0	0	0	0	0	0	0
1.97	0	0	0	0	0	0	0	0	0	0	0	0	0	0	0	0	0	0
1.975	0	0	0	0	0	0	0	0	0	0	0	0	0	0	0	0	0	0
1.98	0	0	0	0	0	0	0	0	0	0	0	0	0	0	0	0	0	0
1.985	0	0	0	0	0	0	0	0	0	0	0	0	0	0	0	0	0	0
1.99	0	0	0	0	0	0	0	0	0	0	0	0	0	0	0	0	0	0
1.995	0	0	0	0	0	0	0	0	0	0	0	0	0	0	0	0	0	0
2	0	0	0	0	0	0	0	0	0	0	0	0	0	0	0	0	0	0
2.005	0	0	0	0	0	0	0	0	0	0	0	0	0	0	0	0	0	0
2.01	0	0	0	0	0	0	0	0	0	0	0	0	0	0	0	0	0	0
2.015	0	0	0	0	0	0	0	0	0	0	0	0	0	0	0	0	0	0
2.02	0	0	0	0	0	0	0	0	0	0	0	0	0	0	0	0	0	0
2.025	0	0	0	0	0	0	0	0	0	0	0	0	0	0	0	0	0	0
2.03	0	0	0	0	0	0	0	0	0	0	0	0	0	0	0	0	0	0
2.035	0	0	0	0	0	0	0	0	0	0	0	0	0	0	0	0	0	0
2.04	0	0	0	0	0	0	0	0	0	0	0	0	0	0	0	0	0	0
2.045	0	0	0	0	0	0	0	0	0	0	0	0	0	0	0	0	0	0
2.05	0	0	0	0	0	0	0	0	0	0	0	0	0	0	0	0	0	0
2.055	0	0	0	0	0	0	0	0	0	0	0	0	0	0	0	0	0	0
2.06	0	0	0	0	0	0	0	0	0	0	0	0	0	0	0	0	0	0
2.065	0	0	0	0	0	0	0	0	0	0	0	0	0	0	0	0	0	0
2.07	0	0	0	0	0	0	0	0	0	0	0	0	0	0	0	0	0	0
2.075	0	0	0	0	0	0	0	0	0	0	0	0	0	0	0	0	0	0
2.08	0	0	0	0	0	0	0	0	0	-29.7253	33.9724	-21.7923	1.09701	0	-0.213236	5.6665	-6.47614	4.15424
2.085	0	0	0	0	0	0	0	0	0	-60.8708	147.809	-5.80257	1.14584	0	-0.3831	2.66978	-6.48285	0.254499
2.09	0	0	0	0	0	0	0	0	0	-102.007	333.523	27.3042	1.05828	0	-0.418434	0.319275	-1.04391	-0.0854608
2.095	0	0	0	0	0	0	0	0	0	-147.479	580.101	82.4175	1.04046	0	-0.405966	-1.63833	6.4443	0.915569
2.1	0	0	0	0	0	0	0	0	0	-183.864	844.601	155.123	1.02953	0	-0.392224	-2.41256	11.0824	2.03544
2.105	0	0	0	0	0	0	0	0	0	-204.488	1089.89	217.338	1.01973	0	-0.378818	-1.00072	5.33366	1.0636
2.11	0	0	0	0	0	0	0	0	0	-225.892	1309.33	228.854	1.00399	0	-0.367757	2.49463	-14.4595	-2.52733
2.115	0	0	0	0	0	0	0	0	0	-266.3	1505.02	168.425	0.980563	0	-0.361159	6.24019	-35.2671	-3.9467
2.12	0	0	0	0	0	0	0	0	0	-315.062	1672.02	53.9491	0.959726	0	-0.360615	6.5999	-35.0254	-1.13012
2.125	0	0	0	0	0	0	0	0	0	-359.517	1817.83	-64.5334	0.948477	0	-0.364616	1.96312	-9.92612	0.35238
2.13	0	0	0	0	0	0	0	0	0	-399.448	1959.81	-134.227	0.942164	0	-0.368738	-4.56668	22.4054	-1.53454
2.135	0	0	0	0	0	0	0	0	0	-426.985	2106.32	-127.406	0.935146	0	-0.368999	-7.87255	38.8354	-2.34905
2.14	0	0	0	0	0	0	0	0	0	-434.383	2255.42	-54.0306	0.923351	0	-0.365002	-5.67928	29.4882	-0.706415
2.145	0	0	0	0	0	0	0	0	0	-421.115	2396.24	48.6123	0.904968	0	-0.360085	-0.742371	4.22426	0.0856972
2.15	0	0	0	0	0	0	0	0	0	-385.803	2509.9	137.191	0.88161	0	-0.35776	2.41057	-15.6823	-0.857198
2.155	0	0	0	0	0	0	0	0	0	-332.85	2581.69	181.765	0.854034	0	-0.358968	2.04871	-15.8904	-1.11877
2.16	0	0	0	0	0	0	0	0	0	-269.826	2616.73	178.532	0.824288	0	-0.361729	0.330783	-3.20788	-0.218864
2.165	0	0	0	0	0	0	0	0	0	-200.636	2633.31	148.788	0.795999	0	-0.363537	-0.399941	5.24915	0.296588
2.17	0	0	0	0	0	0	0	0	0	-127.586	2640.69	121.327	0.769816	0	-0.36356	-0.169049	3.49887	0.160756
2.175	0	0	0	0	0	0	0	0	0	-52.9787	2635.19	110.724	0.744476	0	-0.362655	0.0580695	-2.88841	-0.121364
2.18	0	0	0	0	0	0	0	0	0	21.6382	2614.58	109.812	0.719839	0	-0.361669	-0.062402	-7.54015	-0.316685
2.185	0	0	0	0	0	0	0	0	0	95.7712	2578.71	100.241	0.695504	0	-0.36089	-0.291571	-7.85076	-0.305179
2.19	0	0	0	0	0	0	0	0	0	169.837	2527.08	69.4339	0.671703	0	-0.360174	-0.227915	-3.39125	-0.0931775
2.195	0	0	0	0	0	0	0	0	0	242.557	2457.36	20.3702	0.649262	0	-0.359284	0.652045	6.60589	0.0547592
2.2	0	0	0	0	0	0	0	0	0	308.155	2364.98	-31.3227	0.628888	0	-0.357791	3.11624	23.9161	-0.316753
2.205	0	0	0	0	0	0	0	0	0	360.704	2244.14	-68.1923	0.610907	0	-0.355453	7.10471	44.2024	-1.34317
2.21	0	0	0	0	0	0	0	0	0	398.097	2090.57	-78.3913	0.593971	0	-0.353042	10.1805	53.4619	-2.00469
2.215	0	0	0	0	0	0	0	0	0	422.908	1902.25	-57.4659	0.573983	0	-0.352115	8.88751	39.9763	-1.20766
2.22	0	0	0	0	0	0	0	0	0	441.416	1678.71	-12.8034	0.545335	0	-0.354361	2.03412	7.73577	-0.0590001
2.225	0	0	0	0	0	0	0	0	0	459.678	1423.37	36.5581	0.50132	0	-0.361632	-8.82561	-27.328	-0.7019
2.23	0	0	0	0	0	0	0	0	0	475.894	1150.39	65.0449	0.434288	0	-0.374831	-19.1463	-46.2825	-2.6169
2.235	0	0	0	0	0	0	0	0	0	479.176	887.194	54.8039	0.344895	0	-0.387572	-20.3129	-37.6093	-2.32321
2.24	0	0	0	0	0	0	0	0	0	453.225	660.737	6.39896	0.25867	0	-0.380528	-4.53754	-6.61509	-0.0640644
2.245	0	0	0	0	0	0	0	0	0	387.107	477.076	-56.6497	0.220504	0	-0.340048	20.6022	25.3904	-3.01495
2.25	0	0	0	0	0	0	0	0	0	290.918	324.591	-96.8938	0.253389	0	-0.286901	33.8545	37.7731	-11.2756
2.255	0	0	0	0	0	0	0	0	0	190.837	194.99	-91.2145	0.322825	0	-0.249278	27.1115	27.7015	-12.9585
2.26	0	0	0	0	0	0	0	0	0	109.501	93.9134	-50.3587	0.354434	0	-0.241363	10.9936	9.42866	-5.05588
2.265	0	0	0	0	0	0	0	0	0	54.8274	28.587	-8.79031	0.266197	0	-0.455281	-2.73	-1.42342	0.437693
2.27	0	0	0	0	0	0	0	0	0	0	0	0	0	0	0	0	0	0
2.275	0	0	0	0	0	0	0	0	0	0	0	0	0	0	0	0	0	0
2.28	0	0	0	0	0	0	0	0	0	0	0	0	0	0	0	0	0	0
2.285	0	0	0	0	0	0	0	0	0	0	0	0	0	0	0	0	0	0
2.29	0	0	0	0	0	0	0	0	0	0	0	0	0	0	0	0	0	0
2.295	0	0	0	0	0	0	0	0	0	0	0	0	0	0	0	0	0	0
2.3	0	0	0	0	0	0	0	0	0	0	0	0	0	0	0	0	0	0
2.305	0	0	0	0	0	0	0	0	0	0	0	0	0	0	0	0	0	0
2.31	0	0	0	0	0	0	0	0	0	0	0	0	0	0	0	0	0	0
2.315	0	0	0	0	0	0	0	0	0	0	0	0	0	0	0	0	0	0
2.32	0	0	0	0	0	0	0	0	0	0	0	0	0	0	0	0	0	0
2.325	0	0	0	0	0	0	0	0	0	0	0	0	0	0	0	0	0	0
2.33	0	0	0	0	0	0	0	0	0	0	0	0	0	0	0	0	0	0
